<?xml version="1.0" encoding="UTF-8"?><svg xmlns="http://www.w3.org/2000/svg" xmlns:xlink="http://www.w3.org/1999/xlink" stroke-dasharray="none" shape-rendering="auto" font-family="'Dialog'" width="926" text-rendering="auto" fill-opacity="1" contentScriptType="text/ecmascript" color-interpolation="auto" color-rendering="auto" preserveAspectRatio="xMidYMid meet" font-size="12px" viewBox="0 0 926 1020" fill="black" stroke="black" image-rendering="auto" stroke-miterlimit="10" zoomAndPan="magnify" version="1.0" stroke-linecap="square" stroke-linejoin="miter" contentStyleType="text/css" font-style="normal" height="1020" stroke-width="1" stroke-dashoffset="0" font-weight="normal" stroke-opacity="1">
    <!--Generated by the Batik Graphics2D SVG Generator-->
    <defs id="genericDefs"/>
    <g>
        <defs id="defs1">
            <linearGradient x1="10" x2="10" y1="10" gradientUnits="userSpaceOnUse" y2="767" xlink:type="simple" xlink:actuate="onLoad" id="linearGradient1" xlink:show="other" spreadMethod="pad">
                <stop stop-opacity="1" stop-color="white" offset="0%"/>
                <stop stop-opacity="1" stop-color="white" offset="100%"/>
            </linearGradient>
            <linearGradient x1="190" x2="190" y1="43" gradientUnits="userSpaceOnUse" y2="743" xlink:type="simple" xlink:actuate="onLoad" id="linearGradient2" xlink:show="other" spreadMethod="pad">
                <stop stop-opacity="1" stop-color="white" offset="0%"/>
                <stop stop-opacity="1" stop-color="rgb(195,209,213)" offset="100%"/>
            </linearGradient>
            <linearGradient x1="230" x2="230" y1="110" gradientUnits="userSpaceOnUse" y2="451" xlink:type="simple" xlink:actuate="onLoad" id="linearGradient3" xlink:show="other" spreadMethod="pad">
                <stop stop-opacity="1" stop-color="white" offset="0%"/>
                <stop stop-opacity="1" stop-color="rgb(195,209,213)" offset="100%"/>
            </linearGradient>
            <linearGradient x1="410" x2="410" y1="43" gradientUnits="userSpaceOnUse" y2="743" xlink:type="simple" xlink:actuate="onLoad" id="linearGradient4" xlink:show="other" spreadMethod="pad">
                <stop stop-opacity="1" stop-color="white" offset="0%"/>
                <stop stop-opacity="1" stop-color="rgb(195,209,213)" offset="100%"/>
            </linearGradient>
            <linearGradient x1="450" x2="450" y1="110" gradientUnits="userSpaceOnUse" y2="210" xlink:type="simple" xlink:actuate="onLoad" id="linearGradient5" xlink:show="other" spreadMethod="pad">
                <stop stop-opacity="1" stop-color="white" offset="0%"/>
                <stop stop-opacity="1" stop-color="rgb(195,209,213)" offset="100%"/>
            </linearGradient>
            <linearGradient x1="590" x2="590" y1="43" gradientUnits="userSpaceOnUse" y2="743" xlink:type="simple" xlink:actuate="onLoad" id="linearGradient6" xlink:show="other" spreadMethod="pad">
                <stop stop-opacity="1" stop-color="white" offset="0%"/>
                <stop stop-opacity="1" stop-color="rgb(195,209,213)" offset="100%"/>
            </linearGradient>
            <linearGradient x1="630" x2="630" y1="130" gradientUnits="userSpaceOnUse" y2="231" xlink:type="simple" xlink:actuate="onLoad" id="linearGradient7" xlink:show="other" spreadMethod="pad">
                <stop stop-opacity="1" stop-color="white" offset="0%"/>
                <stop stop-opacity="1" stop-color="rgb(195,209,213)" offset="100%"/>
            </linearGradient>
            <linearGradient x1="730" x2="730" y1="43" gradientUnits="userSpaceOnUse" y2="743" xlink:type="simple" xlink:actuate="onLoad" id="linearGradient8" xlink:show="other" spreadMethod="pad">
                <stop stop-opacity="1" stop-color="white" offset="0%"/>
                <stop stop-opacity="1" stop-color="rgb(195,209,213)" offset="100%"/>
            </linearGradient>
            <linearGradient x1="810" x2="810" y1="290" gradientUnits="userSpaceOnUse" y2="331" xlink:type="simple" xlink:actuate="onLoad" id="linearGradient9" xlink:show="other" spreadMethod="pad">
                <stop stop-opacity="1" stop-color="white" offset="0%"/>
                <stop stop-opacity="1" stop-color="rgb(195,209,213)" offset="100%"/>
            </linearGradient>
            <clipPath clipPathUnits="userSpaceOnUse" id="clipPath1">
                <path d="M10 10 L10 766 L915 766 L915 10 Z"/>
            </clipPath>
            <clipPath clipPathUnits="userSpaceOnUse" id="clipPath2">
                <path d="M7 7 L919 7 L919 770 L7 770 L7 7 Z"/>
            </clipPath>
            <clipPath clipPathUnits="userSpaceOnUse" id="clipPath3">
                <path d="M15 12 L169 12 L169 28 L15 28 L15 12 Z"/>
            </clipPath>
            <clipPath clipPathUnits="userSpaceOnUse" id="clipPath4">
                <path d="M189 42 L291 42 L291 744 L189 744 L189 42 Z"/>
            </clipPath>
            <clipPath clipPathUnits="userSpaceOnUse" id="clipPath5">
                <path d="M190 43 L190 742 L289 742 L289 43 Z"/>
            </clipPath>
            <clipPath clipPathUnits="userSpaceOnUse" id="clipPath6">
                <path d="M220 45 L261 45 L261 61 L220 61 L220 45 Z"/>
            </clipPath>
            <clipPath clipPathUnits="userSpaceOnUse" id="clipPath7">
                <path d="M230 110 L230 450 L249 450 L249 110 Z"/>
            </clipPath>
            <clipPath clipPathUnits="userSpaceOnUse" id="clipPath8">
                <path d="M229 109 L251 109 L251 452 L229 452 L229 109 Z"/>
            </clipPath>
            <clipPath clipPathUnits="userSpaceOnUse" id="clipPath9">
                <path d="M409 42 L511 42 L511 744 L409 744 L409 42 Z"/>
            </clipPath>
            <clipPath clipPathUnits="userSpaceOnUse" id="clipPath10">
                <path d="M410 43 L410 742 L509 742 L509 43 Z"/>
            </clipPath>
            <clipPath clipPathUnits="userSpaceOnUse" id="clipPath11">
                <path d="M437 45 L485 45 L485 61 L437 61 L437 45 Z"/>
            </clipPath>
            <clipPath clipPathUnits="userSpaceOnUse" id="clipPath12">
                <path d="M450 110 L450 209 L469 209 L469 110 Z"/>
            </clipPath>
            <clipPath clipPathUnits="userSpaceOnUse" id="clipPath13">
                <path d="M449 109 L471 109 L471 211 L449 211 L449 109 Z"/>
            </clipPath>
            <clipPath clipPathUnits="userSpaceOnUse" id="clipPath14">
                <path d="M589 42 L691 42 L691 744 L589 744 L589 42 Z"/>
            </clipPath>
            <clipPath clipPathUnits="userSpaceOnUse" id="clipPath15">
                <path d="M590 43 L590 742 L689 742 L689 43 Z"/>
            </clipPath>
            <clipPath clipPathUnits="userSpaceOnUse" id="clipPath16">
                <path d="M617 45 L665 45 L665 61 L617 61 L617 45 Z"/>
            </clipPath>
            <clipPath clipPathUnits="userSpaceOnUse" id="clipPath17">
                <path d="M630 130 L630 230 L649 230 L649 130 Z"/>
            </clipPath>
            <clipPath clipPathUnits="userSpaceOnUse" id="clipPath18">
                <path d="M629 129 L651 129 L651 232 L629 232 L629 129 Z"/>
            </clipPath>
            <clipPath clipPathUnits="userSpaceOnUse" id="clipPath19">
                <path d="M729 42 L912 42 L912 744 L729 744 L729 42 Z"/>
            </clipPath>
            <clipPath clipPathUnits="userSpaceOnUse" id="clipPath20">
                <path d="M730 43 L730 742 L910 742 L910 43 Z"/>
            </clipPath>
            <clipPath clipPathUnits="userSpaceOnUse" id="clipPath21">
                <path d="M741 45 L901 45 L901 61 L741 61 L741 45 Z"/>
            </clipPath>
            <clipPath clipPathUnits="userSpaceOnUse" id="clipPath22">
                <path d="M810 290 L810 330 L829 330 L829 290 Z"/>
            </clipPath>
            <clipPath clipPathUnits="userSpaceOnUse" id="clipPath23">
                <path d="M809 289 L831 289 L831 332 L809 332 L809 289 Z"/>
            </clipPath>
            <clipPath clipPathUnits="userSpaceOnUse" id="clipPath24">
                <path d="M9 9 L917 9 L917 768 L9 768 L9 9 Z"/>
            </clipPath>
            <clipPath clipPathUnits="userSpaceOnUse" id="clipPath25">
                <path d="M-1 -1 L927 -1 L927 1021 L-1 1021 L-1 -1 Z"/>
            </clipPath>
            <clipPath clipPathUnits="userSpaceOnUse" id="clipPath26">
                <path d="M314 429 L399 429 L399 445 L314 445 L314 429 Z"/>
            </clipPath>
            <clipPath clipPathUnits="userSpaceOnUse" id="clipPath27">
                <path d="M623 443 L642 443 L642 458 L623 458 L623 443 Z"/>
            </clipPath>
            <clipPath clipPathUnits="userSpaceOnUse" id="clipPath28">
                <path d="M315 215 L384 215 L384 231 L315 231 L315 215 Z"/>
            </clipPath>
            <clipPath clipPathUnits="userSpaceOnUse" id="clipPath29">
                <path d="M249 203 L268 203 L268 218 L249 218 L249 203 Z"/>
            </clipPath>
            <clipPath clipPathUnits="userSpaceOnUse" id="clipPath30">
                <path d="M289 329 L409 329 L409 345 L289 345 L289 329 Z"/>
            </clipPath>
            <clipPath clipPathUnits="userSpaceOnUse" id="clipPath31">
                <path d="M249 323 L268 323 L268 338 L249 338 L249 323 Z"/>
            </clipPath>
            <clipPath clipPathUnits="userSpaceOnUse" id="clipPath32">
                <path d="M307 89 L395 89 L395 105 L307 105 L307 89 Z"/>
            </clipPath>
            <clipPath clipPathUnits="userSpaceOnUse" id="clipPath33">
                <path d="M433 103 L452 103 L452 118 L433 118 L433 103 Z"/>
            </clipPath>
            <clipPath clipPathUnits="userSpaceOnUse" id="clipPath34">
                <path d="M529 229 L598 229 L598 245 L529 245 L529 229 Z"/>
            </clipPath>
            <clipPath clipPathUnits="userSpaceOnUse" id="clipPath35">
                <path d="M249 223 L268 223 L268 238 L249 238 L249 223 Z"/>
            </clipPath>
            <clipPath clipPathUnits="userSpaceOnUse" id="clipPath36">
                <path d="M509 109 L597 109 L597 125 L509 125 L509 109 Z"/>
            </clipPath>
            <clipPath clipPathUnits="userSpaceOnUse" id="clipPath37">
                <path d="M613 123 L632 123 L632 138 L613 138 L613 123 Z"/>
            </clipPath>
            <clipPath clipPathUnits="userSpaceOnUse" id="clipPath38">
                <path d="M269 269 L412 269 L412 285 L269 285 L269 269 Z"/>
            </clipPath>
            <clipPath clipPathUnits="userSpaceOnUse" id="clipPath39">
                <path d="M793 283 L812 283 L812 298 L793 298 L793 283 Z"/>
            </clipPath>
            <clipPath clipPathUnits="userSpaceOnUse" id="clipPath40">
                <path d="M314 369 L399 369 L399 385 L314 385 L314 369 Z"/>
            </clipPath>
            <clipPath clipPathUnits="userSpaceOnUse" id="clipPath41">
                <path d="M443 383 L462 383 L462 398 L443 398 L443 383 Z"/>
            </clipPath>
        </defs>
        <g font-size="14px" fill="url(#linearGradient1)" font-family="'Ubuntu'" stroke-linejoin="round" stroke="url(#linearGradient1)" stroke-width="0" stroke-miterlimit="0">
            <rect x="10" width="906" height="757" y="10" clip-path="url(#clipPath1)" stroke="none"/>
        </g>
        <g font-size="14px" stroke-width="0.1" font-family="'Ubuntu'" stroke-linecap="butt">
            <line y2="22" fill="none" x1="182" clip-path="url(#clipPath2)" x2="182" y1="10"/>
            <line y2="22" fill="none" x1="182" clip-path="url(#clipPath2)" x2="182" y1="22"/>
            <line y2="27" fill="none" x1="182" clip-path="url(#clipPath2)" x2="176" y1="22"/>
            <line y2="27" fill="none" x1="176" clip-path="url(#clipPath2)" x2="176" y1="27"/>
            <line y2="27" fill="none" x1="176" clip-path="url(#clipPath2)" x2="10" y1="27"/>
            <text x="16" font-size="12px" y="25" clip-path="url(#clipPath3)" font-family="'Dialog'" stroke="none" xml:space="preserve">Server-client interaction  </text>
            <rect x="190" y="43" clip-path="url(#clipPath4)" fill="none" width="99" height="17" stroke-width="1.1"/>
            <line clip-path="url(#clipPath4)" fill="none" x1="240" x2="240" y1="60" y2="742" stroke-dasharray="5,5" stroke-width="1.1"/>
        </g>
        <g stroke-linecap="butt" font-size="14px" fill="url(#linearGradient2)" font-family="'Ubuntu'" stroke-dasharray="5,5" stroke="url(#linearGradient2)" stroke-width="1.1">
            <rect x="190" y="43" clip-path="url(#clipPath5)" width="100" height="700" opacity="0" stroke="none"/>
        </g>
        <g stroke-linecap="butt" stroke-dasharray="5,5" stroke-width="1.1">
            <text x="221" xml:space="preserve" y="58" clip-path="url(#clipPath6)" stroke="none">Server</text>
        </g>
        <g stroke-linecap="butt" font-size="14px" fill="url(#linearGradient3)" font-family="'Ubuntu'" stroke-dasharray="5,5" stroke="url(#linearGradient3)" stroke-width="1.1">
            <rect x="230" width="20" height="341" y="110" clip-path="url(#clipPath7)" stroke="none"/>
            <rect x="230" y="110" clip-path="url(#clipPath8)" fill="none" width="19" stroke-dasharray="none" rx="0" ry="0" height="340" stroke="black"/>
            <rect x="410" y="43" clip-path="url(#clipPath9)" fill="none" width="99" stroke-dasharray="none" height="17" stroke="black"/>
            <line clip-path="url(#clipPath9)" fill="none" x1="460" x2="460" y1="60" y2="742" stroke="black"/>
            <rect x="410" y="43" clip-path="url(#clipPath10)" fill="url(#linearGradient4)" width="100" opacity="0" height="700" stroke="none"/>
        </g>
        <g stroke-linecap="butt" stroke-dasharray="5,5" stroke-width="1.1">
            <text x="438" xml:space="preserve" y="58" clip-path="url(#clipPath11)" stroke="none">Client 1</text>
        </g>
        <g stroke-linecap="butt" font-size="14px" fill="url(#linearGradient5)" font-family="'Ubuntu'" stroke-dasharray="5,5" stroke="url(#linearGradient5)" stroke-width="1.1">
            <rect x="450" width="20" height="100" y="110" clip-path="url(#clipPath12)" stroke="none"/>
            <rect x="450" y="110" clip-path="url(#clipPath13)" fill="none" width="19" stroke-dasharray="none" rx="0" ry="0" height="99" stroke="black"/>
            <rect x="590" y="43" clip-path="url(#clipPath14)" fill="none" width="99" stroke-dasharray="none" height="17" stroke="black"/>
            <line clip-path="url(#clipPath14)" fill="none" x1="640" x2="640" y1="60" y2="742" stroke="black"/>
            <rect x="590" y="43" clip-path="url(#clipPath15)" fill="url(#linearGradient6)" width="100" opacity="0" height="700" stroke="none"/>
        </g>
        <g stroke-linecap="butt" stroke-dasharray="5,5" stroke-width="1.1">
            <text x="618" xml:space="preserve" y="58" clip-path="url(#clipPath16)" stroke="none">Client 2</text>
        </g>
        <g stroke-linecap="butt" font-size="14px" fill="url(#linearGradient7)" font-family="'Ubuntu'" stroke-dasharray="5,5" stroke="url(#linearGradient7)" stroke-width="1.1">
            <rect x="630" width="20" height="101" y="130" clip-path="url(#clipPath17)" stroke="none"/>
            <rect x="630" y="130" clip-path="url(#clipPath18)" fill="none" width="19" stroke-dasharray="none" rx="0" ry="0" height="100" stroke="black"/>
            <rect x="730" y="43" clip-path="url(#clipPath19)" fill="none" width="180" stroke-dasharray="none" height="17" stroke="black"/>
            <line clip-path="url(#clipPath19)" fill="none" x1="820" x2="820" y1="60" y2="742" stroke="black"/>
            <rect x="730" y="43" clip-path="url(#clipPath20)" fill="url(#linearGradient8)" width="181" opacity="0" height="700" stroke="none"/>
        </g>
        <g stroke-linecap="butt" stroke-dasharray="5,5" stroke-width="1.1">
            <text x="742" xml:space="preserve" y="58" clip-path="url(#clipPath21)" stroke="none">Game (member of Server)</text>
        </g>
        <g stroke-linecap="butt" font-size="14px" fill="url(#linearGradient9)" font-family="'Ubuntu'" stroke-dasharray="5,5" stroke="url(#linearGradient9)" stroke-width="1.1">
            <rect x="810" width="20" height="41" y="290" clip-path="url(#clipPath22)" stroke="none"/>
            <rect x="810" y="290" clip-path="url(#clipPath23)" fill="none" width="19" stroke-dasharray="none" rx="0" ry="0" height="40" stroke="black"/>
            <rect x="10" y="10" clip-path="url(#clipPath24)" fill="none" width="905" stroke-dasharray="none" rx="0" ry="0" height="756" stroke="black"/>
        </g>
        <g stroke-linecap="butt" stroke-width="1.1" text-rendering="optimizeLegibility">
            <line y2="450" fill="none" x1="250" clip-path="url(#clipPath25)" x2="640" y1="450"/>
            <text x="315" xml:space="preserve" y="442" clip-path="url(#clipPath26)" stroke="none">New positions</text>
            <line y2="450" fill="none" x1="624" clip-path="url(#clipPath27)" x2="640" y1="456"/>
            <line y2="444" fill="none" x1="640" clip-path="url(#clipPath27)" x2="624" y1="450"/>
            <line clip-path="url(#clipPath25)" fill="none" x1="450" x2="250" y1="210" y2="210" stroke-dasharray="6.6,3.3"/>
            <text x="316" xml:space="preserve" stroke-dasharray="6.6,3.3" y="228" clip-path="url(#clipPath28)" stroke="none">Send input</text>
            <line y2="210" fill="none" x1="266" clip-path="url(#clipPath29)" x2="250" y1="204"/>
            <line y2="216" fill="none" x1="250" clip-path="url(#clipPath29)" x2="266" y1="210"/>
            <line clip-path="url(#clipPath25)" fill="none" x1="810" x2="250" y1="330" y2="330" stroke-dasharray="6.6,3.3"/>
            <text x="290" xml:space="preserve" stroke-dasharray="6.6,3.3" y="342" clip-path="url(#clipPath30)" stroke="none">Positions calculated</text>
            <line y2="330" fill="none" x1="266" clip-path="url(#clipPath31)" x2="250" y1="324"/>
            <line y2="336" fill="none" x1="250" clip-path="url(#clipPath31)" x2="266" y1="330"/>
            <line y2="110" fill="none" x1="250" clip-path="url(#clipPath25)" x2="450" y1="110"/>
            <text x="308" xml:space="preserve" y="102" clip-path="url(#clipPath32)" stroke="none">Request Input</text>
            <line y2="110" fill="none" x1="434" clip-path="url(#clipPath33)" x2="450" y1="116"/>
            <line y2="104" fill="none" x1="450" clip-path="url(#clipPath33)" x2="434" y1="110"/>
            <line clip-path="url(#clipPath25)" fill="none" x1="630" x2="250" y1="230" y2="230" stroke-dasharray="6.6,3.3"/>
            <text x="530" xml:space="preserve" stroke-dasharray="6.6,3.3" y="242" clip-path="url(#clipPath34)" stroke="none">Send input</text>
            <line y2="230" fill="none" x1="266" clip-path="url(#clipPath35)" x2="250" y1="224"/>
            <line y2="236" fill="none" x1="250" clip-path="url(#clipPath35)" x2="266" y1="230"/>
            <line y2="130" fill="none" x1="250" clip-path="url(#clipPath25)" x2="630" y1="130"/>
            <text x="510" xml:space="preserve" y="122" clip-path="url(#clipPath36)" stroke="none">Request Input</text>
            <line y2="130" fill="none" x1="614" clip-path="url(#clipPath37)" x2="630" y1="136"/>
            <line y2="124" fill="none" x1="630" clip-path="url(#clipPath37)" x2="614" y1="130"/>
            <line y2="290" fill="none" x1="250" clip-path="url(#clipPath25)" x2="810" y1="290"/>
            <text x="270" xml:space="preserve" y="282" clip-path="url(#clipPath38)" stroke="none">Calculate new positions</text>
            <line y2="290" fill="none" x1="794" clip-path="url(#clipPath39)" x2="810" y1="296"/>
            <line y2="284" fill="none" x1="810" clip-path="url(#clipPath39)" x2="794" y1="290"/>
            <line y2="390" fill="none" x1="250" clip-path="url(#clipPath25)" x2="460" y1="390"/>
            <text x="315" xml:space="preserve" y="382" clip-path="url(#clipPath40)" stroke="none">New positions</text>
            <line y2="390" fill="none" x1="444" clip-path="url(#clipPath41)" x2="460" y1="396"/>
            <line y2="384" fill="none" x1="460" clip-path="url(#clipPath41)" x2="444" y1="390"/>
            <line y2="110" fill="none" x1="250" clip-path="url(#clipPath25)" x2="450" y1="110"/>
            <text x="308" xml:space="preserve" y="102" clip-path="url(#clipPath32)" stroke="none">Request Input</text>
            <line y2="110" fill="none" x1="434" clip-path="url(#clipPath33)" x2="450" y1="116"/>
            <line y2="104" fill="none" x1="450" clip-path="url(#clipPath33)" x2="434" y1="110"/>
            <line clip-path="url(#clipPath25)" fill="none" x1="450" x2="250" y1="210" y2="210" stroke-dasharray="6.6,3.3"/>
            <text x="316" xml:space="preserve" stroke-dasharray="6.6,3.3" y="228" clip-path="url(#clipPath28)" stroke="none">Send input</text>
            <line y2="210" fill="none" x1="266" clip-path="url(#clipPath29)" x2="250" y1="204"/>
            <line y2="216" fill="none" x1="250" clip-path="url(#clipPath29)" x2="266" y1="210"/>
            <line y2="130" fill="none" x1="250" clip-path="url(#clipPath25)" x2="630" y1="130"/>
            <text x="510" xml:space="preserve" y="122" clip-path="url(#clipPath36)" stroke="none">Request Input</text>
            <line y2="130" fill="none" x1="614" clip-path="url(#clipPath37)" x2="630" y1="136"/>
            <line y2="124" fill="none" x1="630" clip-path="url(#clipPath37)" x2="614" y1="130"/>
            <line clip-path="url(#clipPath25)" fill="none" x1="630" x2="250" y1="230" y2="230" stroke-dasharray="6.6,3.3"/>
            <text x="530" xml:space="preserve" stroke-dasharray="6.6,3.3" y="242" clip-path="url(#clipPath34)" stroke="none">Send input</text>
            <line y2="230" fill="none" x1="266" clip-path="url(#clipPath35)" x2="250" y1="224"/>
            <line y2="236" fill="none" x1="250" clip-path="url(#clipPath35)" x2="266" y1="230"/>
            <line y2="290" fill="none" x1="250" clip-path="url(#clipPath25)" x2="810" y1="290"/>
            <text x="270" xml:space="preserve" y="282" clip-path="url(#clipPath38)" stroke="none">Calculate new positions</text>
            <line y2="290" fill="none" x1="794" clip-path="url(#clipPath39)" x2="810" y1="296"/>
            <line y2="284" fill="none" x1="810" clip-path="url(#clipPath39)" x2="794" y1="290"/>
            <line clip-path="url(#clipPath25)" fill="none" x1="810" x2="250" y1="330" y2="330" stroke-dasharray="6.6,3.3"/>
            <text x="290" xml:space="preserve" stroke-dasharray="6.6,3.3" y="342" clip-path="url(#clipPath30)" stroke="none">Positions calculated</text>
            <line y2="330" fill="none" x1="266" clip-path="url(#clipPath31)" x2="250" y1="324"/>
            <line y2="336" fill="none" x1="250" clip-path="url(#clipPath31)" x2="266" y1="330"/>
            <line y2="390" fill="none" x1="250" clip-path="url(#clipPath25)" x2="460" y1="390"/>
            <text x="315" xml:space="preserve" y="382" clip-path="url(#clipPath40)" stroke="none">New positions</text>
            <line y2="390" fill="none" x1="444" clip-path="url(#clipPath41)" x2="460" y1="396"/>
            <line y2="384" fill="none" x1="460" clip-path="url(#clipPath41)" x2="444" y1="390"/>
            <line y2="450" fill="none" x1="250" clip-path="url(#clipPath25)" x2="640" y1="450"/>
            <text x="315" xml:space="preserve" y="442" clip-path="url(#clipPath26)" stroke="none">New positions</text>
            <line y2="450" fill="none" x1="624" clip-path="url(#clipPath27)" x2="640" y1="456"/>
            <line y2="444" fill="none" x1="640" clip-path="url(#clipPath27)" x2="624" y1="450"/>
        </g>
    </g>
</svg>
